<svg width="40" height="40" viewBox="0 0 40 40" fill="none" xmlns="http://www.w3.org/2000/svg">
<path d="M33.9687 18.125L31.25 15.4081V8.75C31.25 7.71875 30.4063 6.875 29.375 6.875H27.5C26.4687 6.875 25.625 7.71875 25.625 8.75V9.78687L21.875 6.04063C21.3631 5.55688 20.8944 5 20 5C19.1056 5 18.6369 5.55688 18.125 6.04063L6.03125 18.125C5.44625 18.7344 5 19.1788 5 20C5 21.0556 5.81 21.875 6.875 21.875H8.75V33.125C8.75 34.1563 9.59375 35 10.625 35H14.375C15.4105 35 16.25 34.1605 16.25 33.125V25.625C16.25 24.5937 17.0937 23.75 18.125 23.75H21.875C22.9063 23.75 23.75 24.5937 23.75 25.625V33.125C23.75 34.1605 23.652 35 24.6875 35H29.375C30.4063 35 31.25 34.1563 31.25 33.125V21.875H33.125C34.19 21.875 35 21.0556 35 20C35 19.1788 34.5537 18.7344 33.9687 18.125Z" stroke="white" stroke-width="2" stroke-linejoin="round"/>
</svg>
